<svg width="46" height="44" viewBox="0 0 46 44" fill="none" xmlns="http://www.w3.org/2000/svg">
<path fill-rule="evenodd" clip-rule="evenodd" d="M2.24719 10.6977C1.66848 10.4842 1.0671 10.3162 0.447347 10.1981C0.401845 10.1894 0.356245 10.181 0.310542 10.1729C-0.103514 10.0991 -0.103514 9.50638 0.310542 9.43266C0.356245 9.4245 0.401845 9.4161 0.447347 9.40745C1.0671 9.28928 1.66848 9.1213 2.24719 8.90779C2.59352 8.77999 2.93174 8.63595 3.26091 8.47643C5.54049 7.37208 7.38662 5.52959 8.49321 3.25449C8.65297 2.92597 8.79737 2.58843 8.92535 2.24277C9.13929 1.6652 9.30759 1.065 9.426 0.446466C9.43466 0.401054 9.44308 0.355544 9.45125 0.309931C9.52513 -0.10331 10.119 -0.10331 10.1929 0.309931C10.2011 0.355544 10.2095 0.401054 10.2182 0.446466C10.3366 1.065 10.5049 1.6652 10.7188 2.24277C10.8469 2.58842 10.9912 2.92597 11.151 3.25449C12.2576 5.52959 14.1037 7.37208 16.3833 8.47643C16.7125 8.63595 17.0507 8.77999 17.397 8.90779C17.9757 9.1213 18.5771 9.28928 19.1969 9.40745C19.2424 9.4161 19.2879 9.4245 19.3336 9.43266C19.7477 9.50638 19.7477 10.0991 19.3336 10.1729C19.2879 10.181 19.2424 10.1894 19.1969 10.1981C18.5771 10.3162 17.9757 10.4842 17.397 10.6977C17.0507 10.8255 16.7125 10.9696 16.3833 11.1291C14.1037 12.2334 12.2576 14.0759 11.151 16.3511C10.9912 16.6796 10.8469 17.0171 10.7188 17.3627C10.5049 17.9403 10.3366 18.5405 10.2182 19.1591C10.2095 19.2044 10.2011 19.25 10.1929 19.2956C10.119 19.7088 9.52513 19.7088 9.45125 19.2956C9.44308 19.25 9.43466 19.2044 9.426 19.1591C9.30759 18.5405 9.13929 17.9403 8.92535 17.3627C8.79737 17.0171 8.65297 16.6796 8.49321 16.3511C7.38662 14.0759 5.54049 12.2334 3.26091 11.1291C2.93174 10.9696 2.59353 10.8255 2.24719 10.6977ZM16.083 25.382C15.6782 25.2731 15.2679 25.1776 14.8523 25.0959C14.7873 25.0831 14.7223 25.0707 14.6572 25.0586L14.6374 25.055L14.6107 25.0501C14.5696 25.0426 14.5244 25.0346 14.4341 25.0184L14.4026 25.0128C13.7404 24.8878 13.7404 23.9414 14.4026 23.8164L14.4341 23.8108C14.5244 23.7946 14.5696 23.7866 14.6107 23.7791L14.6374 23.7742L14.6572 23.7706C14.7223 23.7585 14.7873 23.746 14.8522 23.7333C15.2678 23.6516 15.6782 23.5561 16.083 23.4472C16.4287 23.3543 16.7703 23.2515 17.1075 23.1393C22.5634 21.3242 26.8565 17.0395 28.6752 11.5944C28.7876 11.2579 28.8906 10.9169 28.9837 10.5718C29.0928 10.1679 29.1885 9.75832 29.2704 9.34358C29.2831 9.27881 29.2956 9.21391 29.3077 9.14888L29.3114 9.12916L29.3162 9.10249C29.3237 9.06194 29.3317 9.01744 29.3474 8.92934L29.348 8.9263L29.3536 8.89482C29.4789 8.23394 30.4271 8.23394 30.5524 8.89482L30.5581 8.9263C30.5742 9.0164 30.5822 9.06145 30.5897 9.10249L30.5946 9.12916L30.5983 9.14888C30.6104 9.21391 30.6228 9.27881 30.6356 9.34358C30.7175 9.75838 30.8132 10.1679 30.9223 10.5718C31.0154 10.9169 31.1184 11.2579 31.2307 11.5944C33.0494 17.0395 37.3426 21.3242 42.7984 23.1393C43.1357 23.2515 43.4773 23.3543 43.823 23.4472C44.2277 23.5561 44.6382 23.6516 45.0537 23.7333C45.1186 23.746 45.1836 23.7585 45.2488 23.7706L45.2686 23.7742L45.2953 23.7791C45.3364 23.7866 45.3815 23.7946 45.4718 23.8108L45.5034 23.8164C46.1655 23.9414 46.1655 24.8878 45.5034 25.0128L45.4718 25.0184L45.3763 25.0355L45.2953 25.0501L45.2686 25.055L45.2488 25.0586C45.1836 25.0707 45.1186 25.0831 45.0537 25.0959C44.6382 25.1776 44.2277 25.2731 43.823 25.382C43.4773 25.4749 43.1357 25.5777 42.7984 25.6898C37.3426 27.5049 33.0494 31.7897 31.2307 37.2348C31.1184 37.5713 31.0154 37.9123 30.9223 38.2574C30.8132 38.6612 30.7175 39.0709 30.6356 39.4856C30.6228 39.5504 30.6104 39.6153 30.5983 39.6803L30.5946 39.7L30.5897 39.7267L30.5788 39.7867L30.5587 39.8994L30.5524 39.9344C30.4271 40.5952 29.4789 40.5952 29.3536 39.9344L29.348 39.9029C29.3319 39.813 29.3237 39.7677 29.3162 39.7267L29.3114 39.7L29.3077 39.6803C29.2956 39.6153 29.2831 39.5504 29.2704 39.4856C29.1885 39.0708 29.0928 38.6612 28.9837 38.2574C28.8906 37.9123 28.7876 37.5713 28.6752 37.2348C26.8565 31.7897 22.5634 27.5049 17.1075 25.6898C16.7703 25.5777 16.4287 25.4749 16.083 25.382ZM6.95136 38.0584C7.64734 38.1911 8.3066 38.4233 8.91394 38.7397C9.18412 38.8805 9.44399 39.0379 9.69221 39.2106C10.3839 39.6919 10.9853 40.2922 11.4676 40.9825C11.6407 41.2303 11.7985 41.4897 11.9394 41.7593C12.2565 42.3654 12.4891 43.0234 12.6221 43.718C12.6275 43.7467 12.6329 43.7754 12.638 43.8042C12.6847 44.0652 13.0598 44.0652 13.1065 43.8042C13.1116 43.7754 13.1169 43.7467 13.1224 43.718C13.2554 43.0234 13.488 42.3654 13.805 41.7593C13.9461 41.4897 14.1038 41.2303 14.2769 40.9825C14.7591 40.2922 15.3606 39.6919 16.0523 39.2106C16.3005 39.0379 16.5604 38.8805 16.8305 38.7397C17.4379 38.4233 18.0972 38.1911 18.7931 38.0584C18.8219 38.053 18.8507 38.0477 18.8795 38.0425C19.141 37.996 19.141 37.6216 18.8795 37.575C18.8507 37.5699 18.8219 37.5646 18.7931 37.5591C18.0972 37.4264 17.4379 37.1942 16.8305 36.8778C16.5604 36.7371 16.3005 36.5797 16.0523 36.4069C15.3606 35.9256 14.7591 35.3253 14.2769 34.635C14.1038 34.3872 13.9461 34.1279 13.805 33.8583C13.488 33.2521 13.2554 32.5941 13.1224 31.8995C13.1169 31.8708 13.1116 31.8421 13.1065 31.8133C13.0598 31.5523 12.6847 31.5523 12.638 31.8133C12.6329 31.8421 12.6275 31.8708 12.6221 31.8995C12.4891 32.5941 12.2565 33.2521 11.9394 33.8583C11.7985 34.1279 11.6407 34.3872 11.4676 34.635C10.9853 35.3253 10.3839 35.9256 9.69221 36.4069C9.44399 36.5797 9.18412 36.7371 8.91394 36.8778C8.3066 37.1942 7.64734 37.4264 6.95136 37.5591C6.92263 37.5646 6.89384 37.5699 6.86492 37.575C6.60346 37.6216 6.60346 37.996 6.86492 38.0425C6.89384 38.0477 6.92263 38.053 6.95136 38.0584Z" fill="url(#paint0_linear_1134_1051)"/>
<defs>
<linearGradient id="paint0_linear_1134_1051" x1="23" y1="0" x2="23" y2="44" gradientUnits="userSpaceOnUse">
<stop stop-color="#00C9FF"/>
<stop offset="1" stop-color="#AD17E2"/>
</linearGradient>
</defs>
</svg>
